<?xml version="1.0" encoding="UTF-8"?>
<!DOCTYPE svg PUBLIC "-//W3C//DTD SVG 1.1//EN" "http://www.w3.org/Graphics/SVG/1.1/DTD/svg11.dtd">
<!-- Creator: CorelDRAW X7 -->
<svg xmlns="http://www.w3.org/2000/svg" xml:space="preserve" width="213.5mm" height="174.5mm" version="1.1" style="shape-rendering:geometricPrecision; text-rendering:geometricPrecision; image-rendering:optimizeQuality; fill-rule:evenodd; clip-rule:evenodd"
viewBox="0 0 21350 17450"
 xmlns:xlink="http://www.w3.org/1999/xlink">
 <defs>
  <style type="text/css">
   <![CDATA[
    .fil0 {fill:#FF3030}
    .fil1 {fill:yellow;fill-rule:nonzero}
   ]]>
  </style>
 </defs>
 <g id="Layer_x0020_1">
  <metadata id="CorelCorpID_0Corel-Layer"/>
  <path class="fil0" d="M15896 6008c-582,255 -1204,430 -1859,509 667,-402 1180,-1035 1423,-1792 -626,366 -1319,631 -2058,779 -589,-631 -1429,-1026 -2363,-1026 -1788,0 -3238,1451 -3238,3237 0,256 30,503 84,739 -2692,-127 -5078,-1419 -6675,-3373 -281,474 -438,1027 -438,1628 0,1126 573,2115 1440,2697 -531,-18 -1030,-164 -1467,-406l0 40c0,1570 1115,2879 2598,3177 -272,73 -559,112 -853,112 -207,0 -405,-19 -603,-56 415,1285 1609,2222 3030,2249 -1106,868 -2507,1385 -4016,1385 -256,0 -513,-15 -770,-44 1440,917 3138,1454 4974,1454 5958,0 9213,-4934 9213,-9205 0,-138 0,-276 -10,-414 633,-454 1185,-1027 1619,-1678l-31 -12 0 0 0 0z"/>
  <g id="_755452432">
   <path class="fil1" d="M15635 2573l1479 -1480c329,103 688,27 948,-200l466 466 -746 747 3266 3266 -747 747 -3266 -3266 -560 560 -840 -840zm93 1586c586,611 1395,956 2240,956 1147,0 2076,-929 2076,-2076 0,-1281 -788,-2430 -1982,-2893 1649,0 2986,1337 2986,2987 0,1649 -1337,2986 -2986,2986 -1124,0 -2174,-562 -2797,-1497l463 -463zm-280 1213l374 -373 373 373 -373 374 -374 -374z"/>
   <path class="fil1" d="M16008 5652c0,258 -209,467 -466,467 -258,0 -467,-209 -467,-467 0,-257 209,-466 467,-466 257,0 466,209 466,466z"/>
  </g>
 </g>
</svg>
