<?xml version="1.0" encoding="UTF-8"?>
<!DOCTYPE svg PUBLIC "-//W3C//DTD SVG 1.1//EN" "http://www.w3.org/Graphics/SVG/1.1/DTD/svg11.dtd">
<!-- Creator: CorelDRAW X7 -->
<svg xmlns="http://www.w3.org/2000/svg" xml:space="preserve" width="210.009mm" height="170.687mm" version="1.1" style="shape-rendering:geometricPrecision; text-rendering:geometricPrecision; image-rendering:optimizeQuality; fill-rule:evenodd; clip-rule:evenodd"
viewBox="0 0 21002 17069"
 xmlns:xlink="http://www.w3.org/1999/xlink">
 <defs>
  <style type="text/css">
   <![CDATA[
    .fil0 {fill:#FF3030}
   ]]>
  </style>
 </defs>
 <g id="Layer_x0020_1">
  <metadata id="CorelCorpID_0Corel-Layer"/>
  <path class="fil0" d="M20961 2033c-775,340 -1602,572 -2472,678 887,-535 1569,-1377 1892,-2383 -832,486 -1754,839 -2736,1036 -784,-839 -1901,-1364 -3142,-1364 -2378,0 -4305,1928 -4305,4303 0,341 39,669 111,983 -3579,-169 -6751,-1887 -8874,-4485 -374,631 -583,1366 -583,2165 0,1497 762,2812 1915,3585 -706,-23 -1370,-217 -1950,-539l0 53c0,2087 1482,3827 3453,4224 -361,97 -743,149 -1134,149 -275,0 -538,-26 -801,-75 552,1709 2139,2955 4028,2990 -1470,1154 -3333,1842 -5339,1842 -341,0 -682,-20 -1024,-59 1915,1220 4172,1933 6613,1933 7922,0 12249,-6559 12249,-12238 0,-183 0,-367 -13,-551 841,-603 1575,-1365 2153,-2230l-41 -17 0 0z"/>
 </g>
</svg>
